<?xml version="1.0" standalone="no"?>
<!DOCTYPE svg PUBLIC "-//W3C//DTD SVG 20010904//EN"
 "http://www.w3.org/TR/2001/REC-SVG-20010904/DTD/svg10.dtd">
<svg version="1.0" xmlns="http://www.w3.org/2000/svg"
 width="512.000000pt" height="512.000000pt" viewBox="0 0 512.000000 512.000000"
 preserveAspectRatio="xMidYMid meet">
<metadata>
Created by potrace 1.11, written by Peter Selinger 2001-2013
</metadata>
<g transform="translate(0.000000,512.000000) scale(0.100000,-0.100000)"
fill="#000000" stroke="none">
<path d="M2418 5046 c-1 -2 -41 -6 -88 -10 -92 -7 -127 -11 -206 -27 -28 -5
-64 -12 -80 -15 -52 -9 -177 -43 -254 -68 -710 -232 -1278 -769 -1551 -1469
-33 -86 -84 -247 -95 -300 -2 -10 -5 -26 -8 -35 -3 -9 -8 -35 -12 -57 -3 -22
-8 -43 -9 -46 -2 -3 -7 -28 -11 -55 -3 -27 -8 -58 -10 -69 -24 -126 -24 -546
0 -672 3 -12 8 -43 11 -70 4 -26 11 -64 15 -83 5 -19 11 -48 14 -64 24 -133
118 -393 208 -571 162 -322 425 -641 693 -840 22 -17 42 -33 45 -36 8 -9 181
-123 234 -154 72 -41 230 -119 306 -150 136 -56 412 -134 530 -150 25 -3 58
-8 73 -11 175 -29 525 -24 737 10 866 138 1609 744 1923 1566 118 307 166 586
162 925 -8 557 -183 1057 -524 1495 -334 428 -807 741 -1327 875 -74 19 -153
37 -175 40 -23 3 -44 7 -48 9 -3 2 -35 7 -71 11 -36 4 -78 9 -95 12 -36 5
-382 13 -387 9z"/>
</g>
</svg>
